<svg xmlns="http://www.w3.org/2000/svg" version="1.1" xmlns:xlink="http://www.w3.org/1999/xlink" xmlns:svgjs="http://svgjs.com/svgjs" width="512" height="512" x="0" y="0" viewBox="0 0 32 32" style="enable-background:new 0 0 512 512" xml:space="preserve" class=""><g><path d="M16.063 28.585H5.448A2.55 2.55 0 0 1 2.9 26.037V8.478A2.55 2.55 0 0 1 5.448 5.93H7.19v.184a2.329 2.329 0 0 0 2.326 2.325H17.8a2.329 2.329 0 0 0 2.326-2.325V5.93h1.755c1.418 0 2.528 1.119 2.528 2.548v6.376a.9.9 0 0 0 1.8 0V8.478c0-2.397-1.942-4.349-4.329-4.349h-1.755V3.94a2.33 2.33 0 0 0-2.326-2.326H9.517A2.33 2.33 0 0 0 7.191 3.94v.188H5.448A4.355 4.355 0 0 0 1.1 8.478v17.56a4.355 4.355 0 0 0 4.349 4.349h10.614a.9.9 0 0 0 0-1.802zM8.991 3.94c0-.29.235-.525.525-.525H17.8c.29 0 .525.235.525.525v2.173a.525.525 0 0 1-.525.524H9.517a.525.525 0 0 1-.525-.524V3.94z" fill="#000000" data-original="#000000" class=""></path><path d="M20.728 13.696a.9.9 0 0 0-.9-.9H7.479a.9.9 0 0 0 0 1.8h12.348a.9.9 0 0 0 .901-.9zM7.48 17.613a.9.9 0 0 0 0 1.8h7.726a.9.9 0 0 0 0-1.8zM30.283 21.08l-5.779-3.358a2.047 2.047 0 0 0-2.052 0l-5.777 3.357a1.24 1.24 0 0 0-.002 2.142l1.517.881v2.648a2.02 2.02 0 0 0 1.008 1.743l2.412 1.392a3.752 3.752 0 0 0 3.737-.001l2.413-1.391a2.018 2.018 0 0 0 1.007-1.743v-2.648l1.514-.88c.383-.221.62-.632.62-1.072a1.242 1.242 0 0 0-.618-1.07zm-6.927-1.802a.236.236 0 0 1 .243 0l4.943 2.873-4.942 2.872a.24.24 0 0 1-.243 0l-4.943-2.873zm3.61 7.473a.218.218 0 0 1-.105.185l-2.412 1.39a1.945 1.945 0 0 1-1.94.001l-2.41-1.39a.217.217 0 0 1-.107-.186v-1.602l2.462 1.431a2.047 2.047 0 0 0 2.051 0l2.462-1.431v1.602z" fill="#000000" data-original="#000000" class=""></path></g></svg>